<?xml version="1.0" ?><!DOCTYPE svg  PUBLIC '-//W3C//DTD SVG 1.1//EN'  'http://www.w3.org/Graphics/SVG/1.1/DTD/svg11.dtd'><svg enable-background="new 0 0 24 24" height="24px" id="Layer_1" version="1.1" viewBox="0 0 24 24" width="24px" xml:space="preserve" xmlns="http://www.w3.org/2000/svg" xmlns:xlink="http://www.w3.org/1999/xlink"><g><g><path d="M7,22L7,22c-0.5,0-0.8-0.3-0.8-1c0.5-3.7-0.9-5.1-2.6-6.6c-1.4-1.3-2.9-2.8-3.1-5.8C0.4,6.9,1,5.2,2.2,4    C3.3,2.7,5,2,6.7,2c0,0,0.1,0,0.1,0c2.3,0,4.4,1.3,5.5,3.4c1.2-1.6,3-2.6,5-2.6l0.2,0c1.7,0.1,3.2,0.8,4.3,2    c1.2,1.3,1.8,2.9,1.7,4.7l0,0.1c-0.1,4.8-5.6,9.1-15.9,12.3C7.3,22,7.2,22,7,22z M7,21l0,0.5L7,21C7,21,7,21,7,21z M6.8,3    C5.3,3,3.9,3.6,2.9,4.7c-1,1.1-1.5,2.4-1.4,3.9c0.2,2.6,1.4,3.9,2.8,5.2C6,15.3,7.7,17,7.2,21c0,0,0,0,0.1,0    c9.8-3,15.2-7.1,15.2-11.4l0-0.2c0.1-1.5-0.4-2.9-1.4-4c-0.9-1-2.2-1.6-3.6-1.7l-0.2,0c-1.8,0-3.4,0.9-4.4,2.5c0,0,0,0,0,0.1    c-0.1,0.2-0.3,0.4-0.6,0.4l0,0c-0.3,0-0.6-0.2-0.7-0.5C10.7,4.3,8.8,3,6.8,3z"/></g></g></svg>